<?xml version="1.0" encoding="UTF-8"?>
<svg xmlns="http://www.w3.org/2000/svg" xmlns:xlink="http://www.w3.org/1999/xlink" width="35px" height="35px" viewBox="0 0 35 35" version="1.1">
<g id="surface1">
<path style=" stroke:none;fill-rule:nonzero;fill:rgb(100%,100%,100%);fill-opacity:1;" d="M 20.21875 34.730469 L 14.78125 34.730469 C 13.683594 34.730469 12.792969 33.839844 12.792969 32.742188 L 12.792969 31.933594 C 12.792969 31.804688 12.71875 31.6875 12.617188 31.652344 C 12.046875 31.457031 11.484375 31.222656 10.941406 30.957031 C 10.847656 30.910156 10.722656 30.941406 10.632812 31.027344 L 10.054688 31.605469 C 9.675781 31.984375 9.175781 32.1875 8.644531 32.1875 C 8.113281 32.1875 7.613281 31.984375 7.238281 31.605469 L 3.394531 27.761719 C 2.617188 26.984375 2.617188 25.722656 3.394531 24.945312 L 3.972656 24.367188 C 4.058594 24.28125 4.089844 24.148438 4.042969 24.058594 C 3.777344 23.511719 3.542969 22.949219 3.347656 22.382812 C 3.3125 22.28125 3.195312 22.207031 3.066406 22.207031 L 2.257812 22.207031 C 1.160156 22.207031 0.269531 21.316406 0.269531 20.21875 L 0.269531 14.78125 C 0.269531 13.683594 1.160156 12.792969 2.257812 12.792969 L 3.070312 12.792969 C 3.195312 12.792969 3.3125 12.71875 3.347656 12.617188 C 3.542969 12.046875 3.777344 11.484375 4.042969 10.941406 C 4.089844 10.847656 4.058594 10.722656 3.972656 10.632812 L 3.394531 10.054688 C 2.617188 9.277344 2.617188 8.015625 3.394531 7.238281 L 7.238281 3.394531 C 7.613281 3.015625 8.113281 2.8125 8.644531 2.8125 C 9.179688 2.8125 9.675781 3.015625 10.054688 3.394531 L 10.632812 3.972656 C 10.722656 4.058594 10.851562 4.089844 10.941406 4.042969 C 11.484375 3.777344 12.046875 3.542969 12.617188 3.347656 C 12.71875 3.3125 12.792969 3.195312 12.792969 3.066406 L 12.792969 2.257812 C 12.792969 1.160156 13.683594 0.269531 14.78125 0.269531 L 20.21875 0.269531 C 21.316406 0.269531 22.207031 1.160156 22.207031 2.257812 L 22.207031 3.070312 C 22.207031 3.195312 22.28125 3.3125 22.382812 3.347656 C 22.949219 3.542969 23.515625 3.777344 24.058594 4.042969 C 24.152344 4.089844 24.277344 4.058594 24.367188 3.972656 L 24.945312 3.394531 C 25.722656 2.617188 26.984375 2.617188 27.761719 3.394531 L 31.605469 7.238281 C 32.382812 8.015625 32.382812 9.277344 31.605469 10.054688 L 31.027344 10.632812 C 30.941406 10.722656 30.910156 10.847656 30.957031 10.941406 C 31.222656 11.484375 31.457031 12.050781 31.652344 12.617188 C 31.6875 12.71875 31.804688 12.792969 31.929688 12.792969 L 32.742188 12.792969 C 33.839844 12.792969 34.730469 13.683594 34.730469 14.78125 L 34.730469 20.21875 C 34.730469 21.316406 33.839844 22.207031 32.742188 22.207031 L 31.933594 22.207031 C 31.804688 22.207031 31.6875 22.28125 31.652344 22.382812 C 31.457031 22.949219 31.222656 23.511719 30.957031 24.058594 C 30.910156 24.152344 30.941406 24.28125 31.027344 24.367188 L 31.605469 24.945312 C 32.382812 25.722656 32.382812 26.984375 31.605469 27.761719 L 27.761719 31.605469 C 27.386719 31.984375 26.886719 32.1875 26.355469 32.1875 C 25.820312 32.1875 25.320312 31.980469 24.945312 31.605469 L 24.367188 31.027344 C 24.277344 30.941406 24.152344 30.910156 24.058594 30.957031 C 23.515625 31.222656 22.949219 31.457031 22.382812 31.652344 C 22.28125 31.6875 22.207031 31.804688 22.207031 31.929688 L 22.207031 32.742188 C 22.207031 33.839844 21.316406 34.730469 20.21875 34.730469 Z M 15.472656 32.050781 L 19.527344 32.050781 L 19.527344 31.933594 C 19.527344 30.65625 20.324219 29.527344 21.507812 29.121094 C 21.972656 28.960938 22.433594 28.769531 22.882812 28.550781 C 24.003906 28 25.363281 28.234375 26.261719 29.132812 L 26.355469 29.226562 L 29.226562 26.355469 L 29.132812 26.261719 C 28.230469 25.363281 28 24.003906 28.550781 22.882812 C 28.769531 22.433594 28.960938 21.972656 29.117188 21.507812 C 29.527344 20.324219 30.65625 19.527344 31.929688 19.527344 L 32.050781 19.527344 L 32.050781 15.472656 L 31.933594 15.472656 C 30.65625 15.472656 29.527344 14.675781 29.121094 13.492188 C 28.960938 13.027344 28.769531 12.566406 28.550781 12.117188 C 28 10.996094 28.234375 9.636719 29.132812 8.738281 L 29.226562 8.644531 L 26.355469 5.773438 L 26.261719 5.867188 C 25.363281 6.769531 24.003906 7 22.882812 6.449219 C 22.433594 6.230469 21.972656 6.039062 21.507812 5.878906 C 20.324219 5.472656 19.527344 4.34375 19.527344 3.066406 L 19.527344 2.949219 L 15.472656 2.949219 L 15.472656 3.066406 C 15.472656 4.34375 14.675781 5.472656 13.492188 5.878906 C 13.027344 6.039062 12.566406 6.230469 12.117188 6.449219 C 10.996094 7 9.636719 6.765625 8.738281 5.867188 L 8.644531 5.773438 L 5.773438 8.644531 L 5.867188 8.738281 C 6.765625 9.636719 7 10.996094 6.449219 12.117188 C 6.234375 12.566406 6.039062 13.027344 5.878906 13.492188 C 5.472656 14.675781 4.34375 15.472656 3.070312 15.472656 L 2.949219 15.472656 L 2.949219 19.527344 L 3.066406 19.527344 C 4.34375 19.527344 5.472656 20.324219 5.878906 21.507812 C 6.039062 21.972656 6.230469 22.433594 6.449219 22.882812 C 7 24.003906 6.769531 25.363281 5.867188 26.261719 L 5.773438 26.355469 L 8.644531 29.226562 L 8.738281 29.132812 C 9.636719 28.230469 10.996094 28 12.117188 28.550781 C 12.566406 28.765625 13.027344 28.960938 13.492188 29.117188 C 14.675781 29.527344 15.472656 30.65625 15.472656 31.929688 Z M 17.511719 27.226562 C 14.929688 27.226562 12.457031 26.210938 10.621094 24.378906 C 8.605469 22.363281 7.578125 19.566406 7.804688 16.710938 C 8.175781 12.007812 12.007812 8.175781 16.714844 7.804688 C 19.570312 7.578125 22.363281 8.605469 24.378906 10.621094 C 26.394531 12.636719 27.421875 15.429688 27.195312 18.289062 C 26.824219 22.996094 22.992188 26.824219 18.289062 27.195312 C 18.027344 27.21875 17.769531 27.226562 17.511719 27.226562 Z M 17.488281 10.453125 C 17.300781 10.453125 17.113281 10.460938 16.925781 10.476562 C 13.515625 10.742188 10.742188 13.515625 10.476562 16.925781 C 10.3125 18.996094 11.054688 21.023438 12.519531 22.480469 C 13.976562 23.945312 16 24.6875 18.074219 24.523438 C 21.484375 24.257812 24.257812 21.484375 24.523438 18.074219 C 24.6875 16.003906 23.945312 13.976562 22.484375 12.519531 C 21.15625 11.1875 19.359375 10.453125 17.488281 10.453125 Z M 17.488281 10.453125 "/>
</g>
</svg>
